<?xml version="1.0" encoding="utf-8"?>
<!-- Generator: Adobe Illustrator 27.9.0, SVG Export Plug-In . SVG Version: 6.00 Build 0)  -->
<svg version="1.1" id="Layer_1" xmlns="http://www.w3.org/2000/svg" xmlns:xlink="http://www.w3.org/1999/xlink" x="0px" y="0px"
	 viewBox="0 0 512 512" style="enable-background:new 0 0 512 512;" xml:space="preserve">
<style type="text/css">
	.st0{fill-rule:evenodd;clip-rule:evenodd;fill:#2476FF;}
	.st1{opacity:0.35;fill-rule:evenodd;clip-rule:evenodd;enable-background:new    ;}
	.st2{fill-rule:evenodd;clip-rule:evenodd;fill:#FBB713;}
	.st3{fill-rule:evenodd;clip-rule:evenodd;fill:#EDEDED;}
	.st4{opacity:0.25;fill-rule:evenodd;clip-rule:evenodd;enable-background:new    ;}
</style>
<g id="group-149svg">
	<path id="path-1" class="st0" d="M305.45,410.72l74.73,74.73l-0.28,1.41c0,13.74-55.7,24.91-124.42,24.91
		c-68.7,0-124.41-11.16-124.41-24.91v-1.41l74.73-74.73l0,0"/>
	<path id="path-2" class="st1" d="M305.44,410.72H205.8l-74.73,74.73v1.41c0,1.92,1.19,3.78,3.25,5.58l51-51h99.65l62.21,62.21
		c20.26-4.43,32.72-10.32,32.72-16.79l0.28-1.41L305.44,410.72z"/>
	<path id="path-3" class="st2" d="M467.37,211.51c0,116.94-94.81,211.74-211.75,211.74S43.88,328.45,43.88,211.51
		S138.68-0.22,255.62-0.22S467.37,94.57,467.37,211.51z"/>
	<path id="path-4" class="st3" d="M342.81,211.51c0,48.14-39.03,87.19-87.19,87.19c-48.14,0-87.19-39.04-87.19-87.19
		c0-48.14,39.04-87.19,87.19-87.19C303.78,124.33,342.81,163.37,342.81,211.51z"/>
	<path id="path-5" class="st4" d="M339.04,16.9c64.34,36.33,107.85,105.23,107.85,184.38c0,116.94-94.8,211.74-211.74,211.74
		c-29.63,0-57.82-6.13-83.43-17.12c30.72,17.35,66.12,27.36,103.91,27.36c116.94,0,211.75-94.8,211.75-211.74
		C467.37,124.2,414.5,49.28,339.04,16.9z"/>
	<path id="path-6" class="st4" d="M284.22,129.22c23,15.7,38.11,42.11,38.11,72.05c0,48.14-39.03,87.19-87.19,87.19
		c-10.03,0-19.62-1.78-28.59-4.9c13.98,9.54,30.87,15.14,49.07,15.14c48.16,0,87.19-39.04,87.19-87.19
		C342.81,173.4,318.31,141.07,284.22,129.22z"/>
</g>
</svg>
